<svg width="117" height="79" viewBox="0 0 117 79" fill="none" xmlns="http://www.w3.org/2000/svg">
<path d="M1 51.2202C1 51.2202 16.2821 32.9289 30 30.2202C40.431 28.1606 46.4876 35.3127 57 33.7202C73.2778 31.2544 76.3958 13.6412 92.5 10.2203C101.477 8.31335 115.5 10.2202 115.5 10.2202" stroke="#FF5151" stroke-width="2" stroke-linecap="round"/>
<path d="M30.5 30.0678C16.7821 32.7764 1.5 51.0678 1.5 51.0678V78.2203H116V10.0678C116 10.0678 101.977 8.16088 93 10.0678C76.8958 13.4887 73.7778 31.102 57.5 33.5678C46.9875 35.1602 40.931 28.0081 30.5 30.0678Z" fill="url(#paint0_linear_1502_10)"/>
<path d="M46.28 8.89028C46.2133 8.89028 46.1567 8.86694 46.11 8.82028C46.0633 8.77361 46.04 8.71694 46.04 8.65028V6.70028H44.12C44.0533 6.70028 43.9967 6.67694 43.95 6.63028C43.9033 6.58361 43.88 6.52694 43.88 6.46028V5.93028C43.88 5.85694 43.9033 5.80028 43.95 5.76028C43.9967 5.71361 44.0533 5.69028 44.12 5.69028H46.04V3.79028C46.04 3.72361 46.0633 3.66694 46.11 3.62028C46.1567 3.57361 46.2133 3.55028 46.28 3.55028H46.86C46.9333 3.55028 46.99 3.57361 47.03 3.62028C47.0767 3.66694 47.1 3.72361 47.1 3.79028V5.69028H49.02C49.0867 5.69028 49.1433 5.71361 49.19 5.76028C49.2367 5.80028 49.26 5.85694 49.26 5.93028V6.46028C49.26 6.52694 49.2367 6.58361 49.19 6.63028C49.1433 6.67694 49.0867 6.70028 49.02 6.70028H47.1V8.65028C47.1 8.71694 47.0767 8.77361 47.03 8.82028C46.99 8.86694 46.9333 8.89028 46.86 8.89028H46.28ZM50.108 9.22028C50.0413 9.22028 49.9846 9.19694 49.938 9.15028C49.8913 9.10361 49.868 9.04694 49.868 8.98028V8.47028C49.868 8.41028 49.8813 8.34028 49.908 8.26028C49.9413 8.17361 50.0113 8.08694 50.118 8.00028L51.698 6.43028C52.138 6.08361 52.4913 5.79028 52.758 5.55028C53.0313 5.30361 53.228 5.08028 53.348 4.88028C53.4746 4.67361 53.538 4.47028 53.538 4.27028C53.538 3.97028 53.4546 3.72694 53.288 3.54028C53.128 3.35361 52.8713 3.26028 52.518 3.26028C52.2846 3.26028 52.088 3.31028 51.928 3.41028C51.768 3.50361 51.6413 3.63028 51.548 3.79028C51.4613 3.95028 51.4013 4.12694 51.368 4.32028C51.3546 4.40694 51.318 4.46694 51.258 4.50028C51.198 4.53361 51.138 4.55028 51.078 4.55028H50.188C50.128 4.55028 50.078 4.53028 50.038 4.49028C49.998 4.45028 49.978 4.40361 49.978 4.35028C49.9846 4.06361 50.0446 3.78694 50.158 3.52028C50.2713 3.24694 50.4346 3.00694 50.648 2.80028C50.868 2.58694 51.1346 2.41694 51.448 2.29028C51.7613 2.16361 52.1146 2.10028 52.508 2.10028C53.0613 2.10028 53.518 2.19361 53.878 2.38028C54.2446 2.56694 54.518 2.82028 54.698 3.14028C54.8846 3.46028 54.978 3.82028 54.978 4.22028C54.978 4.53361 54.918 4.82361 54.798 5.09028C54.678 5.35028 54.5046 5.60361 54.278 5.85028C54.0513 6.09028 53.778 6.33694 53.458 6.59028L52.038 8.03028H54.888C54.9613 8.03028 55.018 8.05361 55.058 8.10028C55.1046 8.14028 55.128 8.19694 55.128 8.27028V8.98028C55.128 9.04694 55.1046 9.10361 55.058 9.15028C55.018 9.19694 54.9613 9.22028 54.888 9.22028H50.108ZM56.7094 9.22028C56.5694 9.22028 56.4994 9.15361 56.4994 9.02028C56.4994 8.98028 56.5127 8.94361 56.5394 8.91028L61.4694 2.41028C61.516 2.35028 61.5627 2.30361 61.6094 2.27028C61.656 2.23694 61.7227 2.22028 61.8094 2.22028H62.3394C62.4794 2.22028 62.5494 2.28694 62.5494 2.42028C62.5494 2.46028 62.536 2.49694 62.5094 2.53028L57.5794 9.03028C57.5327 9.09028 57.486 9.13694 57.4394 9.17028C57.3994 9.20361 57.3327 9.22028 57.2394 9.22028H56.7094ZM61.5194 9.28028C61.0727 9.28028 60.7194 9.15694 60.4594 8.91028C60.1994 8.66361 60.056 8.34028 60.0294 7.94028C60.0227 7.76694 60.0194 7.61694 60.0194 7.49028C60.0194 7.36361 60.0227 7.20694 60.0294 7.02028C60.056 6.62028 60.1927 6.29694 60.4394 6.05028C60.6927 5.80361 61.0527 5.68028 61.5194 5.68028C61.9927 5.68028 62.3527 5.80361 62.5994 6.05028C62.8527 6.29694 62.9894 6.62028 63.0094 7.02028C63.0227 7.20694 63.0294 7.36361 63.0294 7.49028C63.0294 7.61694 63.0227 7.76694 63.0094 7.94028C62.9894 8.34028 62.846 8.66361 62.5794 8.91028C62.3194 9.15694 61.966 9.28028 61.5194 9.28028ZM61.5194 8.50028C61.666 8.50028 61.7794 8.47028 61.8594 8.41028C61.946 8.35028 62.0094 8.27361 62.0494 8.18028C62.0894 8.08694 62.1094 7.99361 62.1094 7.90028C62.1227 7.73361 62.1294 7.59361 62.1294 7.48028C62.1294 7.36028 62.1227 7.22361 62.1094 7.07028C62.1027 6.91694 62.056 6.77694 61.9694 6.65028C61.8827 6.51694 61.7327 6.45028 61.5194 6.45028C61.3127 6.45028 61.166 6.51694 61.0794 6.65028C60.9927 6.77694 60.9427 6.91694 60.9294 7.07028C60.9227 7.22361 60.9194 7.36028 60.9194 7.48028C60.9194 7.59361 60.9227 7.73361 60.9294 7.90028C60.9427 7.99361 60.966 8.08694 60.9994 8.18028C61.0394 8.27361 61.0994 8.35028 61.1794 8.41028C61.266 8.47028 61.3794 8.50028 61.5194 8.50028ZM57.5294 5.74028C57.0827 5.74028 56.7294 5.62361 56.4694 5.39028C56.2094 5.15694 56.066 4.84028 56.0394 4.44028C56.0327 4.26694 56.0294 4.11694 56.0294 3.99028C56.0294 3.85694 56.0327 3.69694 56.0394 3.51028C56.066 3.11028 56.2027 2.78694 56.4494 2.54028C56.7027 2.29361 57.0627 2.17028 57.5294 2.17028C58.0027 2.17028 58.3627 2.29361 58.6094 2.54028C58.8627 2.78694 58.9994 3.11028 59.0194 3.51028C59.0327 3.69694 59.0394 3.85694 59.0394 3.99028C59.0394 4.11694 59.0327 4.26694 59.0194 4.44028C58.9994 4.84028 58.856 5.15694 58.5894 5.39028C58.3294 5.62361 57.976 5.74028 57.5294 5.74028ZM57.5294 5.00028C57.676 5.00028 57.7894 4.97028 57.8694 4.91028C57.956 4.85028 58.0194 4.77361 58.0594 4.68028C58.0994 4.58694 58.1194 4.49028 58.1194 4.39028C58.1327 4.22361 58.1394 4.08361 58.1394 3.97028C58.1394 3.85028 58.1327 3.71361 58.1194 3.56028C58.1127 3.40694 58.066 3.26694 57.9794 3.14028C57.8927 3.01361 57.7427 2.95028 57.5294 2.95028C57.3227 2.95028 57.176 3.01361 57.0894 3.14028C57.0027 3.26694 56.956 3.40694 56.9494 3.56028C56.9427 3.71361 56.9394 3.85028 56.9394 3.97028C56.9394 4.08361 56.9427 4.22361 56.9494 4.39028C56.956 4.49028 56.976 4.58694 57.0094 4.68028C57.0494 4.77361 57.1094 4.85028 57.1894 4.91028C57.276 4.97028 57.3894 5.00028 57.5294 5.00028Z" fill="#FF5151"/>
<path d="M52.5 17.2203L54.5 15.2203M54.5 15.2203L56.5 17.2203M54.5 15.2203V22.2203" stroke="#FF5151" stroke-linecap="round" stroke-linejoin="round"/>
<defs>
<linearGradient id="paint0_linear_1502_10" x1="59" y1="-15.7797" x2="81" y2="43.7203" gradientUnits="userSpaceOnUse">
<stop stop-color="#FF5151"/>
<stop offset="1" stop-color="white" stop-opacity="0"/>
</linearGradient>
</defs>
</svg>
