<svg width="154" height="62" viewBox="0 0 154 62" fill="none" xmlns="http://www.w3.org/2000/svg">
<path d="M11.27 31.3C11.27 29.7893 11.6073 28.44 12.282 27.252C12.9713 26.0493 13.9027 25.118 15.076 24.458C16.264 23.7833 17.5913 23.446 19.058 23.446C20.774 23.446 22.2773 23.886 23.568 24.766C24.8587 25.646 25.7607 26.8633 26.274 28.418H22.732C22.38 27.6847 21.8813 27.1347 21.236 26.768C20.6053 26.4013 19.872 26.218 19.036 26.218C18.1413 26.218 17.342 26.4307 16.638 26.856C15.9487 27.2667 15.406 27.8533 15.01 28.616C14.6287 29.3787 14.438 30.2733 14.438 31.3C14.438 32.312 14.6287 33.2067 15.01 33.984C15.406 34.7467 15.9487 35.3407 16.638 35.766C17.342 36.1767 18.1413 36.382 19.036 36.382C19.872 36.382 20.6053 36.1987 21.236 35.832C21.8813 35.4507 22.38 34.8933 22.732 34.16H26.274C25.7607 35.7293 24.8587 36.954 23.568 37.834C22.292 38.6993 20.7887 39.132 19.058 39.132C17.5913 39.132 16.264 38.802 15.076 38.142C13.9027 37.4673 12.9713 36.536 12.282 35.348C11.6073 34.16 11.27 32.8107 11.27 31.3ZM34.3167 39.198C33.1434 39.198 32.0874 38.9413 31.1487 38.428C30.2101 37.9 29.4694 37.1593 28.9267 36.206C28.3987 35.2527 28.1347 34.1527 28.1347 32.906C28.1347 31.6593 28.4061 30.5593 28.9487 29.606C29.5061 28.6527 30.2614 27.9193 31.2147 27.406C32.1681 26.878 33.2314 26.614 34.4047 26.614C35.5781 26.614 36.6414 26.878 37.5947 27.406C38.5481 27.9193 39.2961 28.6527 39.8387 29.606C40.3961 30.5593 40.6747 31.6593 40.6747 32.906C40.6747 34.1527 40.3887 35.2527 39.8167 36.206C39.2594 37.1593 38.4967 37.9 37.5287 38.428C36.5754 38.9413 35.5047 39.198 34.3167 39.198ZM34.3167 36.514C34.8741 36.514 35.3947 36.382 35.8787 36.118C36.3774 35.8393 36.7734 35.4287 37.0667 34.886C37.3601 34.3433 37.5067 33.6833 37.5067 32.906C37.5067 31.7473 37.1987 30.86 36.5827 30.244C35.9814 29.6133 35.2407 29.298 34.3607 29.298C33.4807 29.298 32.7401 29.6133 32.1387 30.244C31.5521 30.86 31.2587 31.7473 31.2587 32.906C31.2587 34.0647 31.5447 34.9593 32.1167 35.59C32.7034 36.206 33.4367 36.514 34.3167 36.514ZM49.688 26.636C51.14 26.636 52.3133 27.098 53.208 28.022C54.1027 28.9313 54.55 30.2073 54.55 31.85V39H51.47V32.268C51.47 31.3 51.228 30.5593 50.744 30.046C50.26 29.518 49.6 29.254 48.764 29.254C47.9133 29.254 47.2387 29.518 46.74 30.046C46.256 30.5593 46.014 31.3 46.014 32.268V39H42.934V26.812H46.014V28.33C46.4247 27.802 46.9453 27.3913 47.576 27.098C48.2213 26.79 48.9253 26.636 49.688 26.636ZM61.0649 29.342V35.238C61.0649 35.6487 61.1603 35.9493 61.3509 36.14C61.5563 36.316 61.8936 36.404 62.3629 36.404H63.7929V39H61.8569C59.2609 39 57.9629 37.7387 57.9629 35.216V29.342H56.5109V26.812H57.9629V23.798H61.0649V26.812H63.7929V29.342H61.0649ZM69.0882 28.704C69.4842 28.0587 69.9976 27.5527 70.6282 27.186C71.2736 26.8193 72.0069 26.636 72.8282 26.636V29.87H72.0142C71.0462 29.87 70.3129 30.0973 69.8142 30.552C69.3302 31.0067 69.0882 31.7987 69.0882 32.928V39H66.0082V26.812H69.0882V28.704ZM74.1108 32.862C74.1108 31.63 74.3528 30.5373 74.8368 29.584C75.3354 28.6307 76.0028 27.8973 76.8388 27.384C77.6894 26.8707 78.6354 26.614 79.6768 26.614C80.5861 26.614 81.3781 26.7973 82.0528 27.164C82.7421 27.5307 83.2921 27.9927 83.7028 28.55V26.812H86.8048V39H83.7028V37.218C83.3068 37.79 82.7568 38.2667 82.0528 38.648C81.3634 39.0147 80.5641 39.198 79.6548 39.198C78.6281 39.198 77.6894 38.934 76.8388 38.406C76.0028 37.878 75.3354 37.1373 74.8368 36.184C74.3528 35.216 74.1108 34.1087 74.1108 32.862ZM83.7028 32.906C83.7028 32.158 83.5561 31.52 83.2628 30.992C82.9694 30.4493 82.5734 30.0387 82.0748 29.76C81.5761 29.4667 81.0408 29.32 80.4688 29.32C79.8968 29.32 79.3688 29.4593 78.8848 29.738C78.4008 30.0167 78.0048 30.4273 77.6968 30.97C77.4034 31.498 77.2568 32.1287 77.2568 32.862C77.2568 33.5953 77.4034 34.2407 77.6968 34.798C78.0048 35.3407 78.4008 35.7587 78.8848 36.052C79.3834 36.3453 79.9114 36.492 80.4688 36.492C81.0408 36.492 81.5761 36.3527 82.0748 36.074C82.5734 35.7807 82.9694 35.37 83.2628 34.842C83.5561 34.2993 83.7028 33.654 83.7028 32.906ZM93.3989 29.342V35.238C93.3989 35.6487 93.4943 35.9493 93.6849 36.14C93.8903 36.316 94.2276 36.404 94.6969 36.404H96.1269V39H94.1909C91.5949 39 90.2969 37.7387 90.2969 35.216V29.342H88.8449V26.812H90.2969V23.798H93.3989V26.812H96.1269V29.342H93.3989ZM97.5502 32.862C97.5502 31.63 97.7922 30.5373 98.2762 29.584C98.7749 28.6307 99.4422 27.8973 100.278 27.384C101.129 26.8707 102.075 26.614 103.116 26.614C104.026 26.614 104.818 26.7973 105.492 27.164C106.182 27.5307 106.732 27.9927 107.142 28.55V26.812H110.244V39H107.142V37.218C106.746 37.79 106.196 38.2667 105.492 38.648C104.803 39.0147 104.004 39.198 103.094 39.198C102.068 39.198 101.129 38.934 100.278 38.406C99.4422 37.878 98.7749 37.1373 98.2762 36.184C97.7922 35.216 97.5502 34.1087 97.5502 32.862ZM107.142 32.906C107.142 32.158 106.996 31.52 106.702 30.992C106.409 30.4493 106.013 30.0387 105.514 29.76C105.016 29.4667 104.48 29.32 103.908 29.32C103.336 29.32 102.808 29.4593 102.324 29.738C101.84 30.0167 101.444 30.4273 101.136 30.97C100.843 31.498 100.696 32.1287 100.696 32.862C100.696 33.5953 100.843 34.2407 101.136 34.798C101.444 35.3407 101.84 35.7587 102.324 36.052C102.823 36.3453 103.351 36.492 103.908 36.492C104.48 36.492 105.016 36.3527 105.514 36.074C106.013 35.7807 106.409 35.37 106.702 34.842C106.996 34.2993 107.142 33.654 107.142 32.906ZM120.409 30.134C119.851 30.134 119.389 29.9653 119.023 29.628C118.671 29.276 118.495 28.8433 118.495 28.33C118.495 27.8167 118.671 27.3913 119.023 27.054C119.389 26.702 119.851 26.526 120.409 26.526C120.951 26.526 121.399 26.702 121.751 27.054C122.103 27.3913 122.279 27.8167 122.279 28.33C122.279 28.8433 122.103 29.276 121.751 29.628C121.399 29.9653 120.951 30.134 120.409 30.134ZM122.433 35.766L119.859 41.948H117.879L119.309 35.766H122.433ZM130.995 23.644C132.609 23.644 134.024 23.9593 135.241 24.59C136.473 25.2207 137.419 26.1227 138.079 27.296C138.754 28.4547 139.091 29.804 139.091 31.344C139.091 32.884 138.754 34.2333 138.079 35.392C137.419 36.536 136.473 37.4233 135.241 38.054C134.024 38.6847 132.609 39 130.995 39H125.627V23.644H130.995ZM130.885 36.382C132.499 36.382 133.745 35.942 134.625 35.062C135.505 34.182 135.945 32.9427 135.945 31.344C135.945 29.7453 135.505 28.4987 134.625 27.604C133.745 26.6947 132.499 26.24 130.885 26.24H128.707V36.382H130.885Z" fill="#FF5151"/>
</svg>
