<svg width="117" height="79" viewBox="0 0 117 79" fill="none" xmlns="http://www.w3.org/2000/svg">
<path d="M1 51.5C1 51.5 16.2821 33.2086 30 30.5C40.431 28.4403 46.4876 35.5924 57 34C73.2778 31.5342 76.3958 13.9209 92.5 10.5C101.477 8.59307 115.5 10.5 115.5 10.5" stroke="#FF5151" stroke-width="2" stroke-linecap="round"/>
<path d="M30.5 30.3475C16.7821 33.0562 1.5 51.3475 1.5 51.3475V78.5H116V10.3475C116 10.3475 101.977 8.4406 93 10.3475C76.8958 13.7685 73.7778 31.3817 57.5 33.8475C46.9875 35.4399 40.931 28.2878 30.5 30.3475Z" fill="url(#paint0_linear_1562_288)"/>
<path d="M46.28 9.17C46.2133 9.17 46.1567 9.14667 46.11 9.1C46.0633 9.05333 46.04 8.99667 46.04 8.93V6.98H44.12C44.0533 6.98 43.9967 6.95667 43.95 6.91C43.9033 6.86333 43.88 6.80667 43.88 6.74V6.21C43.88 6.13667 43.9033 6.08 43.95 6.04C43.9967 5.99333 44.0533 5.97 44.12 5.97H46.04V4.07C46.04 4.00333 46.0633 3.94667 46.11 3.9C46.1567 3.85333 46.2133 3.83 46.28 3.83H46.86C46.9333 3.83 46.99 3.85333 47.03 3.9C47.0767 3.94667 47.1 4.00333 47.1 4.07V5.97H49.02C49.0867 5.97 49.1433 5.99333 49.19 6.04C49.2367 6.08 49.26 6.13667 49.26 6.21V6.74C49.26 6.80667 49.2367 6.86333 49.19 6.91C49.1433 6.95667 49.0867 6.98 49.02 6.98H47.1V8.93C47.1 8.99667 47.0767 9.05333 47.03 9.1C46.99 9.14667 46.9333 9.17 46.86 9.17H46.28ZM52.7026 9.61C52.1292 9.61 51.6459 9.51667 51.2526 9.33C50.8592 9.13667 50.5592 8.88667 50.3526 8.58C50.1526 8.27333 50.0459 7.94667 50.0326 7.6C50.0259 7.54 50.0426 7.49333 50.0826 7.46C50.1292 7.42 50.1826 7.4 50.2426 7.4H51.1726C51.2459 7.4 51.3059 7.41667 51.3526 7.45C51.4059 7.47667 51.4459 7.52667 51.4726 7.6C51.5392 7.8 51.6326 7.96333 51.7526 8.09C51.8792 8.21667 52.0226 8.31 52.1826 8.37C52.3492 8.43 52.5226 8.46 52.7026 8.46C52.9426 8.46 53.1592 8.41333 53.3526 8.32C53.5526 8.22 53.7126 8.07333 53.8326 7.88C53.9526 7.68667 54.0126 7.45 54.0126 7.17C54.0126 6.92333 53.9559 6.71 53.8426 6.53C53.7292 6.35 53.5726 6.21 53.3726 6.11C53.1792 6.00333 52.9559 5.95 52.7026 5.95C52.5159 5.95 52.3626 5.97333 52.2426 6.02C52.1226 6.06667 52.0192 6.12 51.9326 6.18C51.8526 6.24 51.7792 6.29333 51.7126 6.34C51.6526 6.38667 51.5826 6.41 51.5026 6.41H50.5826C50.5226 6.41 50.4692 6.39 50.4226 6.35C50.3826 6.30333 50.3626 6.25 50.3626 6.19L50.7126 2.77C50.7192 2.68333 50.7492 2.61667 50.8026 2.57C50.8559 2.52333 50.9192 2.5 50.9926 2.5H54.7526C54.8192 2.5 54.8759 2.52333 54.9226 2.57C54.9692 2.61667 54.9926 2.67333 54.9926 2.74V3.41C54.9926 3.47667 54.9692 3.53333 54.9226 3.58C54.8759 3.62667 54.8192 3.65 54.7526 3.65H51.8626L51.7026 5.28C51.8226 5.2 51.9826 5.12333 52.1826 5.05C52.3826 4.97667 52.6592 4.94 53.0126 4.94C53.3326 4.94 53.6359 4.99333 53.9226 5.1C54.2159 5.2 54.4759 5.35 54.7026 5.55C54.9292 5.74333 55.1059 5.98 55.2326 6.26C55.3659 6.53333 55.4326 6.84667 55.4326 7.2C55.4326 7.68667 55.3192 8.11 55.0926 8.47C54.8659 8.83 54.5492 9.11 54.1426 9.31C53.7359 9.51 53.2559 9.61 52.7026 9.61ZM56.9438 9.5C56.8038 9.5 56.7338 9.43333 56.7338 9.3C56.7338 9.26 56.7471 9.22333 56.7738 9.19L61.7038 2.69C61.7504 2.63 61.7971 2.58333 61.8438 2.55C61.8904 2.51667 61.9571 2.5 62.0438 2.5H62.5738C62.7138 2.5 62.7838 2.56667 62.7838 2.7C62.7838 2.74 62.7704 2.77667 62.7438 2.81L57.8138 9.31C57.7671 9.37 57.7204 9.41667 57.6738 9.45C57.6338 9.48333 57.5671 9.5 57.4738 9.5H56.9438ZM61.7538 9.56C61.3071 9.56 60.9538 9.43667 60.6938 9.19C60.4338 8.94333 60.2904 8.62 60.2638 8.22C60.2571 8.04667 60.2538 7.89667 60.2538 7.77C60.2538 7.64333 60.2571 7.48667 60.2638 7.3C60.2904 6.9 60.4271 6.57667 60.6738 6.33C60.9271 6.08333 61.2871 5.96 61.7538 5.96C62.2271 5.96 62.5871 6.08333 62.8338 6.33C63.0871 6.57667 63.2238 6.9 63.2438 7.3C63.2571 7.48667 63.2638 7.64333 63.2638 7.77C63.2638 7.89667 63.2571 8.04667 63.2438 8.22C63.2238 8.62 63.0804 8.94333 62.8138 9.19C62.5538 9.43667 62.2004 9.56 61.7538 9.56ZM61.7538 8.78C61.9004 8.78 62.0138 8.75 62.0938 8.69C62.1804 8.63 62.2438 8.55333 62.2838 8.46C62.3238 8.36667 62.3438 8.27333 62.3438 8.18C62.3571 8.01333 62.3638 7.87333 62.3638 7.76C62.3638 7.64 62.3571 7.50333 62.3438 7.35C62.3371 7.19667 62.2904 7.05667 62.2038 6.93C62.1171 6.79667 61.9671 6.73 61.7538 6.73C61.5471 6.73 61.4004 6.79667 61.3138 6.93C61.2271 7.05667 61.1771 7.19667 61.1638 7.35C61.1571 7.50333 61.1538 7.64 61.1538 7.76C61.1538 7.87333 61.1571 8.01333 61.1638 8.18C61.1771 8.27333 61.2004 8.36667 61.2338 8.46C61.2738 8.55333 61.3338 8.63 61.4138 8.69C61.5004 8.75 61.6138 8.78 61.7538 8.78ZM57.7638 6.02C57.3171 6.02 56.9638 5.90333 56.7038 5.67C56.4438 5.43667 56.3004 5.12 56.2738 4.72C56.2671 4.54667 56.2638 4.39667 56.2638 4.27C56.2638 4.13667 56.2671 3.97667 56.2738 3.79C56.3004 3.39 56.4371 3.06667 56.6838 2.82C56.9371 2.57333 57.2971 2.45 57.7638 2.45C58.2371 2.45 58.5971 2.57333 58.8438 2.82C59.0971 3.06667 59.2338 3.39 59.2538 3.79C59.2671 3.97667 59.2738 4.13667 59.2738 4.27C59.2738 4.39667 59.2671 4.54667 59.2538 4.72C59.2338 5.12 59.0904 5.43667 58.8238 5.67C58.5638 5.90333 58.2104 6.02 57.7638 6.02ZM57.7638 5.28C57.9104 5.28 58.0238 5.25 58.1038 5.19C58.1904 5.13 58.2538 5.05333 58.2938 4.96C58.3338 4.86667 58.3538 4.77 58.3538 4.67C58.3671 4.50333 58.3738 4.36333 58.3738 4.25C58.3738 4.13 58.3671 3.99333 58.3538 3.84C58.3471 3.68667 58.3004 3.54667 58.2138 3.42C58.1271 3.29333 57.9771 3.23 57.7638 3.23C57.5571 3.23 57.4104 3.29333 57.3238 3.42C57.2371 3.54667 57.1904 3.68667 57.1838 3.84C57.1771 3.99333 57.1738 4.13 57.1738 4.25C57.1738 4.36333 57.1771 4.50333 57.1838 4.67C57.1904 4.77 57.2104 4.86667 57.2438 4.96C57.2838 5.05333 57.3438 5.13 57.4238 5.19C57.5104 5.25 57.6238 5.28 57.7638 5.28Z" fill="#FF5151"/>
<path d="M52.5 17.5L54.5 15.5M54.5 15.5L56.5 17.5M54.5 15.5V22.5" stroke="#FF5151" stroke-linecap="round" stroke-linejoin="round"/>
<defs>
<linearGradient id="paint0_linear_1562_288" x1="37" y1="-10.5" x2="61.5" y2="52" gradientUnits="userSpaceOnUse">
<stop stop-color="#FF5151"/>
<stop offset="1" stop-color="white" stop-opacity="0"/>
</linearGradient>
</defs>
</svg>
