<svg width="50" height="50" viewBox="0 0 50 50" fill="none" xmlns="http://www.w3.org/2000/svg">
<rect width="50" height="50" rx="25" fill="white"/>
<g filter="url(#filter0_di_3302_352)">
<path d="M14.5648 21.91C13.8048 21.91 13.1748 21.68 12.6748 21.22C12.1948 20.74 11.9548 20.15 11.9548 19.45C11.9548 18.75 12.1948 18.17 12.6748 17.71C13.1748 17.23 13.8048 16.99 14.5648 16.99C15.3048 16.99 15.9148 17.23 16.3948 17.71C16.8748 18.17 17.1148 18.75 17.1148 19.45C17.1148 20.15 16.8748 20.74 16.3948 21.22C15.9148 21.68 15.3048 21.91 14.5648 21.91ZM17.3248 29.59L13.8148 38.02H11.1148L13.0648 29.59H17.3248ZM29.0013 13.06C31.2013 13.06 33.1313 13.49 34.7913 14.35C36.4713 15.21 37.7613 16.44 38.6613 18.04C39.5813 19.62 40.0413 21.46 40.0413 23.56C40.0413 25.66 39.5813 27.5 38.6613 29.08C37.7613 30.64 36.4713 31.85 34.7913 32.71C33.1313 33.57 31.2013 34 29.0013 34H21.6813V13.06H29.0013ZM28.8513 30.43C31.0513 30.43 32.7513 29.83 33.9513 28.63C35.1513 27.43 35.7513 25.74 35.7513 23.56C35.7513 21.38 35.1513 19.68 33.9513 18.46C32.7513 17.22 31.0513 16.6 28.8513 16.6H25.8813V30.43H28.8513Z" fill="#FF5151"/>
</g>
<defs>
<filter id="filter0_di_3302_352" x="9" y="13" width="33.0413" height="31.02" filterUnits="userSpaceOnUse" color-interpolation-filters="sRGB">
<feFlood flood-opacity="0" result="BackgroundImageFix"/>
<feColorMatrix in="SourceAlpha" type="matrix" values="0 0 0 0 0 0 0 0 0 0 0 0 0 0 0 0 0 0 127 0" result="hardAlpha"/>
<feOffset dy="4"/>
<feGaussianBlur stdDeviation="1"/>
<feComposite in2="hardAlpha" operator="out"/>
<feColorMatrix type="matrix" values="0 0 0 0 0 0 0 0 0 0 0 0 0 0 0 0 0 0 0.25 0"/>
<feBlend mode="normal" in2="BackgroundImageFix" result="effect1_dropShadow_3302_352"/>
<feBlend mode="normal" in="SourceGraphic" in2="effect1_dropShadow_3302_352" result="shape"/>
<feColorMatrix in="SourceAlpha" type="matrix" values="0 0 0 0 0 0 0 0 0 0 0 0 0 0 0 0 0 0 127 0" result="hardAlpha"/>
<feOffset dy="4"/>
<feGaussianBlur stdDeviation="2"/>
<feComposite in2="hardAlpha" operator="arithmetic" k2="-1" k3="1"/>
<feColorMatrix type="matrix" values="0 0 0 0 0 0 0 0 0 0 0 0 0 0 0 0 0 0 0.25 0"/>
<feBlend mode="normal" in2="shape" result="effect2_innerShadow_3302_352"/>
</filter>
</defs>
</svg>
