<svg width="24" height="24" viewBox="0 0 24 24" fill="none" xmlns="http://www.w3.org/2000/svg">
<g clip-path="url(#clip0_244_878)">
<path fill-rule="evenodd" clip-rule="evenodd" d="M14.9579 7.40978C17.2465 9.80627 17.159 13.6042 14.7625 15.8928C12.366 18.1814 8.56804 18.0939 6.27947 15.6974C3.99091 13.3009 4.07839 9.50295 6.47488 7.21438C8.87136 4.92582 12.6693 5.0133 14.9579 7.40978ZM16.8242 16.6038C19.3384 13.5225 19.2218 8.9789 16.4043 6.02851C13.3529 2.8332 8.28892 2.71655 5.09361 5.76797C1.89829 8.8194 1.78165 13.8834 4.83307 17.0787C7.6506 20.0291 12.184 20.3547 15.3778 17.9851L17.4925 20.1995C17.8739 20.5989 18.5069 20.6135 18.9063 20.232C19.3057 19.8506 19.3203 19.2176 18.9389 18.8182L16.8242 16.6038Z" fill="#B2B2B2"/>
</g>
<defs>
<clipPath id="clip0_244_878">
<rect width="24" height="24" fill="white"/>
</clipPath>
</defs>
</svg>
