<svg width="24" height="24" viewBox="0 0 24 24" fill="none" xmlns="http://www.w3.org/2000/svg">
<path d="M12 3C7.032 3 3 7.032 3 12C3 16.968 7.032 21 12 21C16.968 21 21 16.968 21 12C21 7.032 16.968 3 12 3ZM8.4 16.95C7.80326 16.95 7.23097 16.7129 6.80901 16.291C6.38705 15.869 6.15 15.2967 6.15 14.7C6.15 14.1033 6.38705 13.531 6.80901 13.109C7.23097 12.6871 7.80326 12.45 8.4 12.45C8.99674 12.45 9.56903 12.6871 9.99099 13.109C10.4129 13.531 10.65 14.1033 10.65 14.7C10.65 15.2967 10.4129 15.869 9.99099 16.291C9.56903 16.7129 8.99674 16.95 8.4 16.95ZM9.75 8.4C9.75 7.80326 9.98705 7.23097 10.409 6.80901C10.831 6.38705 11.4033 6.15 12 6.15C12.5967 6.15 13.169 6.38705 13.591 6.80901C14.0129 7.23097 14.25 7.80326 14.25 8.4C14.25 8.99674 14.0129 9.56903 13.591 9.99099C13.169 10.4129 12.5967 10.65 12 10.65C11.4033 10.65 10.831 10.4129 10.409 9.99099C9.98705 9.56903 9.75 8.99674 9.75 8.4ZM15.6 16.95C15.0033 16.95 14.431 16.7129 14.009 16.291C13.5871 15.869 13.35 15.2967 13.35 14.7C13.35 14.1033 13.5871 13.531 14.009 13.109C14.431 12.6871 15.0033 12.45 15.6 12.45C16.1967 12.45 16.769 12.6871 17.191 13.109C17.6129 13.531 17.85 14.1033 17.85 14.7C17.85 15.2967 17.6129 15.869 17.191 16.291C16.769 16.7129 16.1967 16.95 15.6 16.95Z" fill="#B2B2B2"/>
</svg>
