<svg width="24" height="24" viewBox="0 0 24 24" fill="none" xmlns="http://www.w3.org/2000/svg">
<path d="M12 3C7.0374 3 3 7.0374 3 12V15.7287C3 16.6503 3.8073 17.4 4.8 17.4H5.7C5.93869 17.4 6.16761 17.3052 6.3364 17.1364C6.50518 16.9676 6.6 16.7387 6.6 16.5V11.8713C6.6 11.6326 6.50518 11.4037 6.3364 11.2349C6.16761 11.0661 5.93869 10.9713 5.7 10.9713H4.8828C5.3832 7.4883 8.3802 4.8 12 4.8C15.6198 4.8 18.6168 7.4883 19.1172 10.9713H18.3C18.0613 10.9713 17.8324 11.0661 17.6636 11.2349C17.4948 11.4037 17.4 11.6326 17.4 11.8713V17.4C17.4 18.3927 16.5927 19.2 15.6 19.2H13.8V18.3H10.2V21H15.6C17.5854 21 19.2 19.3854 19.2 17.4C20.1927 17.4 21 16.6503 21 15.7287V12C21 7.0374 16.9626 3 12 3Z" fill="#B2B2B2"/>
</svg>
