<svg width="68" height="44" viewBox="0 0 68 44" fill="none" xmlns="http://www.w3.org/2000/svg">
<path d="M23.0648 20.91C22.3048 20.91 21.6748 20.68 21.1748 20.22C20.6948 19.74 20.4548 19.15 20.4548 18.45C20.4548 17.75 20.6948 17.17 21.1748 16.71C21.6748 16.23 22.3048 15.99 23.0648 15.99C23.8048 15.99 24.4148 16.23 24.8948 16.71C25.3748 17.17 25.6148 17.75 25.6148 18.45C25.6148 19.15 25.3748 19.74 24.8948 20.22C24.4148 20.68 23.8048 20.91 23.0648 20.91ZM25.8248 28.59L22.3148 37.02H19.6148L21.5648 28.59H25.8248ZM37.5013 12.06C39.7013 12.06 41.6313 12.49 43.2913 13.35C44.9713 14.21 46.2613 15.44 47.1613 17.04C48.0813 18.62 48.5413 20.46 48.5413 22.56C48.5413 24.66 48.0813 26.5 47.1613 28.08C46.2613 29.64 44.9713 30.85 43.2913 31.71C41.6313 32.57 39.7013 33 37.5013 33H30.1813V12.06H37.5013ZM37.3513 29.43C39.5513 29.43 41.2513 28.83 42.4513 27.63C43.6513 26.43 44.2513 24.74 44.2513 22.56C44.2513 20.38 43.6513 18.68 42.4513 17.46C41.2513 16.22 39.5513 15.6 37.3513 15.6H34.3813V29.43H37.3513Z" fill="#FF5151"/>
</svg>
