<svg width="18" height="20" viewBox="0 0 18 20" fill="none" xmlns="http://www.w3.org/2000/svg">
<path d="M9.00146 20C10.3066 20 11.3745 19.0769 11.3745 17.9487H6.62843C6.62843 18.4928 6.87845 19.0145 7.32348 19.3992C7.76851 19.7839 8.3721 20 9.00146 20ZM16.1205 13.8462V8.71795C16.1205 5.56923 14.1747 2.93333 10.7812 2.2359V1.53846C10.7812 0.68718 9.98627 0 9.00146 0C8.01666 0 7.22169 0.68718 7.22169 1.53846V2.2359C3.8164 2.93333 1.88238 5.55897 1.88238 8.71795V13.8462L0.351774 15.1692C-0.395729 15.8154 0.126337 16.9231 1.18233 16.9231H16.8087C17.8647 16.9231 18.3987 15.8154 17.6512 15.1692L16.1205 13.8462Z" fill="#B2B2B2"/>
</svg>
