<svg width="24" height="25" viewBox="0 0 24 25" fill="none" xmlns="http://www.w3.org/2000/svg">
<path d="M5 14.6575C6.10457 14.6575 7 13.762 7 12.6575C7 11.5529 6.10457 10.6575 5 10.6575C3.89543 10.6575 3 11.5529 3 12.6575C3 13.762 3.89543 14.6575 5 14.6575Z" fill="#B2B2B2"/>
<path d="M12 14.6575C13.1046 14.6575 14 13.762 14 12.6575C14 11.5529 13.1046 10.6575 12 10.6575C10.8954 10.6575 10 11.5529 10 12.6575C10 13.762 10.8954 14.6575 12 14.6575Z" fill="#B2B2B2"/>
<path d="M19 14.6575C20.1046 14.6575 21 13.762 21 12.6575C21 11.5529 20.1046 10.6575 19 10.6575C17.8954 10.6575 17 11.5529 17 12.6575C17 13.762 17.8954 14.6575 19 14.6575Z" fill="#B2B2B2"/>
</svg>
