<svg width="24" height="25" viewBox="0 0 24 25" fill="none" xmlns="http://www.w3.org/2000/svg">
<path d="M13.9771 3.65747C14.0618 3.65732 14.1456 3.67386 14.2239 3.70614C14.3022 3.73842 14.3733 3.78581 14.4333 3.84561L20.8118 10.2242C20.9326 10.345 21.0005 10.5088 21.0005 10.6797C21.0005 10.8505 20.9326 11.0144 20.8118 11.1352C20.1933 11.7537 19.4305 11.8929 18.8751 11.8929C18.647 11.8929 18.4434 11.8697 18.2823 11.8426L14.2439 15.8811C14.3502 16.3094 14.4191 16.7462 14.45 17.1865C14.5093 18.091 14.4088 19.3603 13.5222 20.2469C13.4014 20.3677 13.2376 20.4355 13.0667 20.4355C12.8959 20.4355 12.732 20.3677 12.6112 20.2469L8.96576 16.6027L4.86544 20.703C4.61417 20.9543 3.29464 21.8654 3.04337 21.6141C2.79209 21.3628 3.70313 20.042 3.95441 19.792L8.05472 15.6917L4.41057 12.0462C4.28978 11.9254 4.22193 11.7616 4.22193 11.5907C4.22193 11.4199 4.28978 11.256 4.41057 11.1352C5.29712 10.2486 6.56639 10.1468 7.47099 10.2074C7.91125 10.2383 8.348 10.3072 8.77634 10.4136L12.8148 6.37641C12.7811 6.18018 12.7638 5.98147 12.7633 5.78237C12.7633 5.22827 12.9024 4.46542 13.5222 3.84561C13.643 3.72516 13.8066 3.65751 13.9771 3.65747Z" fill="#686868"/>
</svg>
